HIERARCHY
ROOT hip
{
  OFFSET 0 0 0
  CHANNELS 6 Xposition Yposition Zposition Zrotation Yrotation Xrotation
  JOINT abdomen
  {
    OFFSET 0 20.6881 -0.73152
    CHANNELS 3 Zrotation Xrotation Yrotation
    JOINT chest
    {
      OFFSET 0 11.7043 -0.48768
      CHANNELS 3 Zrotation Xrotation Yrotation
      JOINT neck
      {
        OFFSET 0 22.1894 -2.19456
        CHANNELS 3 Zrotation Xrotation Yrotation
        JOINT head
        {
          OFFSET -0.24384 7.07133 1.2192
          CHANNELS 3 Zrotation Xrotation Yrotation
          JOINT leftEye
          {
            OFFSET 4.14528 8.04674 8.04672
            CHANNELS 3 Zrotation Xrotation Yrotation
            End Site
            {
              OFFSET 1 0 0
            }
          }
          JOINT rightEye
          {
            OFFSET -3.6576 8.04674 8.04672
            CHANNELS 3 Zrotation Xrotation Yrotation
            End Site
            {
              OFFSET 1 0 0
            }
          }
        }
      }
      JOINT rCollar
      {
        OFFSET -2.68224 19.2634 -4.8768
        CHANNELS 3 Zrotation Xrotation Yrotation
        JOINT rShldr
        {
          OFFSET -8.77824 -1.95073 1.46304
          CHANNELS 3 Zrotation Xrotation Yrotation
          JOINT rForeArm
          {
            OFFSET -28.1742 -1.7115 0.48768
            CHANNELS 3 Zrotation Xrotation Yrotation
            JOINT rHand
            {
              OFFSET -22.5879 0.773209 7.07136
              CHANNELS 3 Zrotation Xrotation Yrotation
              JOINT rThumb1
              {
                OFFSET -1.2192 -0.487915 3.41376
                CHANNELS 3 Zrotation Xrotation Yrotation
                JOINT rThumb2
                {
                  OFFSET -3.37035 -0.52449 3.41376
                  CHANNELS 3 Zrotation Xrotation Yrotation
                  End Site
                  {
                    OFFSET -1.78271 -1.18214 1.43049
                  }
                }
              }
              JOINT rIndex1
              {
                OFFSET -7.75947 0.938293 5.60832
                CHANNELS 3 Zrotation Xrotation Yrotation
                JOINT rIndex2
                {
                  OFFSET -2.54057 -0.884171 1.56538
                  CHANNELS 3 Zrotation Xrotation Yrotation
                  End Site
                  {
                    OFFSET -1.62519 -0.234802 1.16502
                  }
                }
              }
              JOINT rMid1
              {
                OFFSET -8.24714 1.18213 3.41376
                CHANNELS 3 Zrotation Xrotation Yrotation
                JOINT rMid2
                {
                  OFFSET -3.10165 -0.590103 1.0647
                  CHANNELS 3 Zrotation Xrotation Yrotation
                  End Site
                  {
                    OFFSET -2.48547 -0.328903 0.83742
                  }
                }
              }
              JOINT rRing1
              {
                OFFSET -8.82822 0.546677 1.51678
                CHANNELS 3 Zrotation Xrotation Yrotation
                JOINT rRing2
                {
                  OFFSET -2.60934 -0.819778 -0.0198488
                  CHANNELS 3 Zrotation Xrotation Yrotation
                  End Site
                  {
                    OFFSET -2.33842 -0.294052 0.168128
                  }
                }
              }
              JOINT rPinky1
              {
                OFFSET -8.27202 -0.0477905 -0.4584
                CHANNELS 3 Zrotation Xrotation Yrotation
                JOINT rPinky2
                {
                  OFFSET -1.82734 -0.647385 -0.700984
                  CHANNELS 3 Zrotation Xrotation Yrotation
                  End Site
                  {
                    OFFSET -1.69225 -0.51767 -0.607171
                  }
                }
              }
            }
          }
        }
      }
      JOINT lCollar
      {
        OFFSET 2.68224 19.2634 -4.8768
        CHANNELS 3 Zrotation Xrotation Yrotation
        JOINT lShldr
        {
          OFFSET 8.77824 -1.95073 1.46304
          CHANNELS 3 Zrotation Xrotation Yrotation
          JOINT lForeArm
          {
            OFFSET 28.1742 -1.7115 0.48768
            CHANNELS 3 Zrotation Xrotation Yrotation
            JOINT lHand
            {
              OFFSET 22.5879 0.773209 7.07136
              CHANNELS 3 Zrotation Xrotation Yrotation
              JOINT lThumb1
              {
                OFFSET 1.2192 -0.487915 3.41376
                CHANNELS 3 Zrotation Xrotation Yrotation
                JOINT lThumb2
                {
                  OFFSET 3.37035 -0.52449 3.41376
                  CHANNELS 3 Zrotation Xrotation Yrotation
                  End Site
                  {
                    OFFSET 1.78271 -1.18214 1.43049
                  }
                }
              }
              JOINT lIndex1
              {
                OFFSET 7.75947 0.938293 5.60832
                CHANNELS 3 Zrotation Xrotation Yrotation
                JOINT lIndex2
                {
                  OFFSET 2.54057 -0.884171 1.56538
                  CHANNELS 3 Zrotation Xrotation Yrotation
                  End Site
                  {
                    OFFSET 1.62519 -0.234802 1.16502
                  }
                }
              }
              JOINT lMid1
              {
                OFFSET 8.24714 1.18213 3.41376
                CHANNELS 3 Zrotation Xrotation Yrotation
                JOINT lMid2
                {
                  OFFSET 3.10165 -0.590103 1.0647
                  CHANNELS 3 Zrotation Xrotation Yrotation
                  End Site
                  {
                    OFFSET 2.48547 -0.328903 0.83742
                  }
                }
              }
              JOINT lRing1
              {
                OFFSET 8.82822 0.546677 1.51678
                CHANNELS 3 Zrotation Xrotation Yrotation
                JOINT lRing2
                {
                  OFFSET 2.60934 -0.819778 -0.0198488
                  CHANNELS 3 Zrotation Xrotation Yrotation
                  End Site
                  {
                    OFFSET 2.33842 -0.294052 0.168128
                  }
                }
              }
              JOINT lPinky1
              {
                OFFSET 8.27202 -0.0477905 -0.4584
                CHANNELS 3 Zrotation Xrotation Yrotation
                JOINT lPinky2
                {
                  OFFSET 1.82734 -0.647385 -0.700984
                  CHANNELS 3 Zrotation Xrotation Yrotation
                  End Site
                  {
                    OFFSET 1.69225 -0.51767 -0.607171
                  }
                }
              }
            }
          }
        }
      }
    }
  }
  JOINT rButtock
  {
    OFFSET -8.77824 4.35084 1.2192
    CHANNELS 3 Zrotation Xrotation Yrotation
    JOINT rThigh
    {
      OFFSET 0 -1.70687 -2.19456
      CHANNELS 3 Zrotation Xrotation Yrotation
      JOINT rShin
      {
        OFFSET 0 -36.8199 0.73152
        CHANNELS 3 Zrotation Xrotation Yrotation
        JOINT rFoot
        {
          OFFSET 0.73152 -45.1104 -5.12064
          CHANNELS 3 Zrotation Xrotation Yrotation
          End Site
          {
            OFFSET -1.1221 -3.69964 12.103
          }
        }
      }
    }
  }
  JOINT lButtock
  {
    OFFSET 8.77824 4.35084 1.2192
    CHANNELS 3 Zrotation Xrotation Yrotation
    JOINT lThigh
    {
      OFFSET 0 -1.70687 -2.19456
      CHANNELS 3 Zrotation Xrotation Yrotation
      JOINT lShin
      {
        OFFSET 0 -36.8199 0.73152
        CHANNELS 3 Zrotation Xrotation Yrotation
        JOINT lFoot
        {
          OFFSET -0.73152 -45.1104 -5.12064
          CHANNELS 3 Zrotation Xrotation Yrotation
          End Site
          {
            OFFSET 1.1221 -3.69964 12.103
          }
        }
      }
    }
  }
}
MOTION
Frames:	4
Frame Time:	0.03333
0.0 0.0 0.0 0.0 0.0 0.0 0.0 0.0 0.0 0.0 0.0 0.0 0.0 0.0 0.0 0.0 0.0 0.0 0.0 0.0 0.0 0.0 0.0 0.0 0.0 0.0 0.0 0.0 0.0 0.0 0.0 0.0 0.0 0.0 0.0 0.0 0.0 0.0 0.0 0.0 0.0 0.0 0.0 0.0 0.0 0.0 0.0 0.0 0.0 0.0 0.0 0.0 0.0 0.0 0.0 0.0 0.0 0.0 0.0 0.0 0.0 0.0 0.0 0.0 0.0 0.0 0.0 0.0 0.0 0.0 0.0 0.0 0.0 0.0 0.0 0.0 0.0 0.0 0.0 0.0 0.0 0.0 0.0 0.0 0.0 0.0 0.0 0.0 0.0 0.0 0.0 0.0 0.0 0.0 0.0 0.0 0.0 0.0 0.0 0.0 0.0 0.0 0.0 0.0 0.0 0.0 0.0 0.0 0.0 0.0 0.0 0.0 0.0 0.0 0.0 0.0 0.0 0.0 0.0 0.0 0.0 0.0 0.0 0.0 0.0 0.0 0.0 0.0 0.0 0.0 0.0 0.0
0.11019999999999999 65.8575 -0.0903 -1.282891 36.644293 -2.015161 0.615236 5.031531 -0.028424 0.539201 6.71709 -1.994375 8.289478 -13.628155 83.449103 46.43329 -3.308435 73.545902 -53.197833 -23.273383 44.711601 14.961818 -7.864096 -55.258971 34.575361 59.228404 54.788716 -161.603808 0.068531 179.36054 161.497758 -41.777042 -179.217371 173.790222 -7.719121 -85.661336 13.479973 -37.462408 55.306558 -52.608966 45.788848 -167.643484 -33.785082 1.097464 -112.72065 3.940247 31.545885 -142.304675 154.873142 11.03805 -107.452574 -137.181151 -4.055026 131.133571 -100.841431 10.136386 -81.998826 -90.818389 -35.663117 -129.328265 -136.89805 25.699535 -82.435555 -165.999302 50.392081 -178.568445 -71.217927 -84.784095 32.117937 -23.149515 -50.946785 -16.078511 9.591832 49.469334 -163.680921 -18.269297 -26.347889 59.172764 -81.53464 0.989649 -43.425885 -66.431183 -22.421304 -98.832198 -26.540692 7.398033 -82.336987 -121.135091 -82.145393 88.666592 -147.436453 -45.038061 119.207949 -18.160575 -72.483697 92.189601 -8.220353 -5.361142 84.302711 -85.086237 38.642351 101.671576 -80.457863 25.16939 53.675699 86.097091 -36.771021 81.843417 -6.18682 -53.712645 -0.280201 11.80533 53.638441 -180.0 -6.646439 -0.3938 -95.117654 80.318185 38.422785 -91.643226 -60.581901 -1.198243 -88.297333 -0.555153 58.3976 177.175376 3.156781 1.617798 144.994818 74.599792 61.972533 -82.215305
0.0135 63.9983 -0.08009999999999999 -179.806247 -21.690094 179.079559 -0.991629 16.99387 -5.317406 -2.794828 -8.333695 8.08668 20.92535 24.548791 96.850844 -55.760173 29.449504 -94.258688 -29.572865 -0.864881 3.275752 168.022202 -0.622935 5.932646 24.856271 -57.614767 9.926648 46.149274 43.311656 -17.677703 177.833649 52.082086 28.673118 125.911983 -47.590937 108.231187 27.025941 -79.299829 31.612341 4.841407 31.53386 -19.42874 -13.157757 -8.563785 -0.061625 -162.264165 -61.791728 175.099112 178.709133 -45.654565 170.414378 128.358736 61.001048 -99.68695 -169.221294 -10.319332 134.245485 13.525229 31.791337 48.199793 -122.299763 56.551309 165.830265 52.285697 22.514955 -60.911945 -0.439357 -37.841653 8.158104 85.529605 -38.100876 150.010713 167.572221 -2.13381 81.40628 -2.91681 -16.346412 17.925011 83.970027 51.869941 -33.372101 -41.054609 -65.721104 -52.076315 -31.646992 9.036421 32.502305 -93.596718 39.159739 -61.307642 -154.013031 42.198858 -176.035158 114.024299 -65.605927 87.963566 84.322575 29.913224 -71.35065 -21.031058 28.139623 -12.821186 -10.368233 23.736942 -1.513087 95.555334 -20.346919 7.289731 94.608963 15.82423 63.224725 -142.873834 16.104236 -69.876071 -67.530933 10.691552 -34.454529 -16.317117 29.103455 123.66652 -101.91983 62.302166 -67.002108 -172.736644 57.117265 -180.0 -1.200709 -44.675062 100.744675 10.867644 -37.680262 87.539802
1.3079 62.905 -2.0124 175.927994 -5.38124 176.442468 -18.059415 9.481131 -116.80206 -5.014241 9.207051 127.796457 -8.732307 5.728814 -90.626201 20.122176 -27.387615 46.243847 39.235935 13.551428 36.870027 -74.766849 3.160969 -4.136108 -19.996228 31.926715 18.534088 -125.53769 40.723694 85.902491 -39.4282 -20.212697 -145.518186 -171.757257 -20.331473 122.678453 -88.759881 -3.96736 51.650842 -62.253478 -61.627218 155.46687 -153.995257 -13.94229 145.098783 36.576618 78.50465 -103.368227 -154.314985 -5.842951 79.516801 118.651593 -2.170981 72.062395 67.371704 -85.061071 51.202548 66.71364 23.389258 21.54519 -152.447681 -5.181525 175.139854 -130.965801 37.100478 -135.456984 146.49842 2.816813 -168.170672 44.540854 17.631199 4.033839 128.121107 -5.743527 77.903447 19.298009 -54.551306 53.836803 168.192532 -31.207289 -59.077173 137.955218 -42.825072 -81.05937 -49.766756 -0.062854 2.170046 69.175268 -30.200533 -34.223311 -9.257447 -25.411649 -42.539555 97.204855 -37.782148 129.403596 120.176512 8.03506 -84.287115 117.542478 20.247248 -96.329406 -35.30481 -39.570046 -107.710907 135.520191 22.883045 122.01467 75.680357 -46.169377 -0.0 -64.324201 -55.163291 -68.46633 -62.795807 -36.865227 15.923336 31.716016 -51.197338 136.270425 71.156174 52.235303 69.328055 -62.249652 18.325121 -0.0 38.831022 35.687944 -69.467439 152.948467 -15.44492 -21.897046
